<?xml version="1.0" standalone="no"?>
<!DOCTYPE svg PUBLIC "-//W3C//DTD SVG 20010904//EN"
 "http://www.w3.org/TR/2001/REC-SVG-20010904/DTD/svg10.dtd">
<svg version="1.0" xmlns="http://www.w3.org/2000/svg"
 width="600.000000pt" height="600.000000pt" viewBox="0 0 600.000000 600.000000"
 preserveAspectRatio="xMidYMid meet">
<metadata>
Created by potrace 1.14, written by Peter Selinger 2001-2017
</metadata>
<g transform="translate(0.000000,600.000000) scale(0.100000,-0.100000)"
fill="#000000" stroke="none">
<path d="M0 3000 l0 -3000 3000 0 3000 0 0 3000 0 3000 -3000 0 -3000 0 0
-3000z m3520 1700 c125 -37 160 -56 160 -84 0 -12 -42 -160 -185 -651 -196
-673 -577 -1985 -675 -2325 -57 -195 -107 -363 -112 -372 -16 -32 -52 -31
-179 7 -168 49 -178 54 -185 82 -5 17 18 108 63 267 291 998 683 2348 779
2681 64 220 123 408 132 418 22 25 51 21 202 -23z m-1370 -863 c120 -125 133
-143 126 -171 -3 -13 -153 -153 -371 -346 -201 -178 -365 -326 -364 -329 0 -3
133 -123 295 -266 400 -352 444 -393 444 -416 0 -23 -201 -245 -230 -254 -11
-3 -26 -3 -34 2 -8 4 -173 157 -367 338 -194 182 -411 384 -481 449 -104 98
-128 125 -128 147 0 23 36 62 217 232 120 112 339 317 486 455 199 187 275
252 293 252 18 0 49 -25 114 -93z m2326 -347 c258 -242 478 -451 488 -465 15
-19 18 -30 10 -49 -5 -12 -88 -97 -184 -187 -97 -90 -310 -290 -474 -444 -163
-154 -309 -284 -323 -290 -24 -9 -33 -2 -139 108 -143 147 -143 149 -41 238
39 35 206 182 370 328 l297 264 -32 28 c-18 15 -184 162 -368 326 -264 234
-336 304 -338 325 -3 22 15 47 104 142 85 94 112 116 134 116 22 0 114 -82
496 -440z"/>
</g>
</svg>
